<mxfile host="65bd71144e">
    <diagram id="eFynaBfXhkqrmZmNVQdl" name="קליינט">
        <mxGraphModel dx="568" dy="550" grid="1" gridSize="10" guides="1" tooltips="1" connect="1" arrows="1" fold="1" page="1" pageScale="1" pageWidth="827" pageHeight="1169" math="0" shadow="0">
            <root>
                <mxCell id="0"/>
                <mxCell id="1" parent="0"/>
                <mxCell id="4" value="" style="edgeStyle=none;html=1;" edge="1" parent="1" source="2" target="3">
                    <mxGeometry relative="1" as="geometry"/>
                </mxCell>
                <mxCell id="2" value="דף כניסה" style="swimlane;whiteSpace=wrap;html=1;startSize=10;" vertex="1" parent="1">
                    <mxGeometry x="120" y="40" width="90" height="80" as="geometry"/>
                </mxCell>
                <mxCell id="17" value="מציג כניסה עם&lt;br&gt;גוגל אם רשום&amp;nbsp;&lt;br&gt;מעביר לאירועים" style="text;html=1;align=center;verticalAlign=middle;resizable=0;points=[];autosize=1;strokeColor=none;fillColor=none;" vertex="1" parent="2">
                    <mxGeometry x="-5" y="10" width="100" height="60" as="geometry"/>
                </mxCell>
                <mxCell id="3" value="אירועים" style="swimlane;whiteSpace=wrap;html=1;startSize=10;" vertex="1" parent="1">
                    <mxGeometry x="50" y="150" width="80" height="80" as="geometry"/>
                </mxCell>
                <mxCell id="5" value="יצירת אירוע&lt;br&gt;חיפוש אירוע&lt;br&gt;כניסה לאירוע" style="text;html=1;align=center;verticalAlign=middle;resizable=0;points=[];autosize=1;strokeColor=none;fillColor=none;" vertex="1" parent="3">
                    <mxGeometry y="20" width="80" height="60" as="geometry"/>
                </mxCell>
                <mxCell id="8" style="edgeStyle=none;html=1;" edge="1" parent="1" source="7">
                    <mxGeometry relative="1" as="geometry">
                        <mxPoint x="200" y="90" as="targetPoint"/>
                        <Array as="points"/>
                    </mxGeometry>
                </mxCell>
                <mxCell id="10" value="" style="edgeStyle=none;html=1;" edge="1" parent="1" source="7" target="9">
                    <mxGeometry relative="1" as="geometry"/>
                </mxCell>
                <mxCell id="7" value="כניסה מלינק" style="swimlane;whiteSpace=wrap;html=1;" vertex="1" parent="1">
                    <mxGeometry x="304" y="40" width="110" height="100" as="geometry"/>
                </mxCell>
                <mxCell id="16" value="אם לא רשום&lt;br&gt;&amp;nbsp;לדף כניסה&amp;nbsp;&lt;br&gt;אם רשום&lt;br&gt;&amp;nbsp;להוספת תמונה" style="text;html=1;align=center;verticalAlign=middle;resizable=0;points=[];autosize=1;strokeColor=none;fillColor=none;" vertex="1" parent="7">
                    <mxGeometry y="30" width="100" height="70" as="geometry"/>
                </mxCell>
                <mxCell id="15" style="edgeStyle=none;html=1;" edge="1" parent="1" source="9" target="5">
                    <mxGeometry relative="1" as="geometry"/>
                </mxCell>
                <mxCell id="9" value="דף הרשמה לאירוע" style="swimlane;whiteSpace=wrap;html=1;" vertex="1" parent="1">
                    <mxGeometry x="306" y="230" width="114" height="90" as="geometry"/>
                </mxCell>
                <mxCell id="12" value="הוספת תמונה&amp;nbsp;&lt;br&gt;ומייל לקבלת תמונות" style="text;html=1;align=center;verticalAlign=middle;resizable=0;points=[];autosize=1;strokeColor=none;fillColor=none;" vertex="1" parent="9">
                    <mxGeometry x="-2" y="30" width="120" height="40" as="geometry"/>
                </mxCell>
            </root>
        </mxGraphModel>
    </diagram>
</mxfile>